<?xml version="1.0" encoding="UTF-8"?><svg id="Potisk" xmlns="http://www.w3.org/2000/svg" viewBox="0 0 560 1120"><defs><style>.cls-2{fill:#fff;}.cls-3{opacity:.7;}</style></defs><path class="cls-2" d="M73.05,1053.72c-.87.62-2.2,1.11-3.72,1.11-1.14,0-2.23-.27-3.1-.87-.98-.68-1.58-1.74-1.58-3.12,0-1.47.68-2.58,1.63-3.23,1.03-.71,2.36-.95,3.75-.95.79,0,1.58.08,2.31.24v-.52c0-.65-.22-1.14-.52-1.41-.38-.35-1.09-.57-2.06-.57-1.49,0-2.85.49-3.91,1.06v-3.56c1.09-.54,2.72-1.03,4.67-1.03,1.79,0,3.4.41,4.45,1.28,1.01.81,1.49,2.01,1.49,3.69v4.54c0,.62.24,1.06.81,1.06.22,0,.46-.05.68-.16v3.1c-.46.24-1.2.41-1.98.41-1.09,0-2.15-.3-2.88-1.06h-.05ZM72.34,1049.3c-.43-.14-1.03-.19-1.47-.19-1.06,0-2.12.33-2.12,1.36,0,.87.76,1.33,1.71,1.33.71,0,1.39-.24,1.87-.54v-1.96Z"/><path class="cls-2" d="M97.79,1046.83c0-1-.16-1.47-.49-1.82-.38-.41-.87-.57-1.41-.57-.95,0-1.93.49-2.63,1.11.03.19.03.41.03.6v8.39h-4.13v-7.71c0-.9-.14-1.44-.49-1.82-.38-.41-.87-.57-1.41-.57-.95,0-1.93.52-2.61,1.09v9.02h-4.13v-13.36h4.07v1.2l.05.03c1.03-.87,2.39-1.52,4.02-1.52,1.44,0,3.1.57,3.88,1.9,1.44-1.28,3.01-1.9,4.7-1.9,1.49,0,2.66.52,3.45,1.33.84.87,1.22,2.04,1.22,3.94v8.39h-4.13v-7.71Z"/><path class="cls-2" d="M113.22,1053.72c-.87.62-2.2,1.11-3.72,1.11-1.14,0-2.23-.27-3.1-.87-.98-.68-1.58-1.74-1.58-3.12,0-1.47.68-2.58,1.63-3.23,1.03-.71,2.36-.95,3.75-.95.79,0,1.58.08,2.31.24v-.52c0-.65-.22-1.14-.52-1.41-.38-.35-1.09-.57-2.06-.57-1.49,0-2.85.49-3.91,1.06v-3.56c1.09-.54,2.72-1.03,4.67-1.03,1.79,0,3.4.41,4.45,1.28,1,.81,1.49,2.01,1.49,3.69v4.54c0,.62.24,1.06.81,1.06.22,0,.46-.05.68-.16v3.1c-.46.24-1.2.41-1.98.41-1.09,0-2.15-.3-2.88-1.06h-.05ZM112.52,1049.3c-.43-.14-1.03-.19-1.47-.19-1.06,0-2.12.33-2.12,1.36,0,.87.76,1.33,1.71,1.33.71,0,1.39-.24,1.87-.54v-1.96Z"/><path class="cls-2" d="M119.39,1054.54l-.03-.05,6-9.83-.03-.05h-5.38v-3.42h11.84l.03.05-6,9.83.03.05h5.81v3.42h-12.28Z"/><path class="cls-2" d="M136.61,1034.58c1.3,0,2.39,1.06,2.39,2.36s-1.09,2.36-2.39,2.36-2.39-1.06-2.39-2.36,1.09-2.36,2.39-2.36ZM134.55,1041.18h4.13v13.36h-4.13v-13.36Z"/><path class="cls-2" d="M142.51,1041.18h4.07v1.22l.05.03c1.03-.84,2.44-1.55,4.13-1.55,1.41,0,2.66.49,3.5,1.36.81.87,1.17,2.04,1.17,3.97v8.34h-4.13v-7.66c0-1-.14-1.49-.46-1.87-.35-.41-.84-.57-1.41-.57-1.06,0-2.06.54-2.8,1.11v8.99h-4.13v-13.36Z"/><path class="cls-2" d="M160.3,1055.92c1.36.84,2.91,1.36,4.32,1.36,2.01,0,3.26-1.03,3.26-3.01v-.73l-.05-.03c-.79.57-2.01.9-3.12.9-3.23,0-6.22-2.5-6.22-6.55s2.8-6.98,6.95-6.98c1.28,0,2.39.3,3.34.76l3.23-.57v13.2c0,4.21-2.88,6.55-7.14,6.55-1.71,0-3.4-.41-4.56-.98v-3.91ZM167.88,1044.87c-.52-.27-1.3-.49-2.04-.49-2.15,0-3.18,1.58-3.18,3.31,0,1.96,1.2,3.34,3.12,3.34.73,0,1.52-.22,2.09-.57v-5.59Z"/><path class="cls-2" d="M180.02,1060.51h-4.13v-19.34h4.05v.68l.05.03c.87-.6,1.98-1,3.31-1,3.42,0,6.33,2.72,6.33,6.87s-3.07,7.09-6.98,7.09c-1.09,0-1.96-.22-2.58-.52l-.05.03v6.17ZM182.14,1051.5c2.15,0,3.34-1.55,3.34-3.53s-1.2-3.64-3.23-3.64c-.84,0-1.63.3-2.23.73v5.92c.52.27,1.28.52,2.12.52Z"/><path class="cls-2" d="M192.71,1033.79h4.13v20.75h-4.13v-20.75Z"/><path class="cls-2" d="M208.19,1053.72c-.87.62-2.2,1.11-3.72,1.11-1.14,0-2.23-.27-3.1-.87-.98-.68-1.58-1.74-1.58-3.12,0-1.47.68-2.58,1.63-3.23,1.03-.71,2.36-.95,3.75-.95.79,0,1.58.08,2.31.24v-.52c0-.65-.22-1.14-.52-1.41-.38-.35-1.09-.57-2.06-.57-1.49,0-2.85.49-3.91,1.06v-3.56c1.09-.54,2.72-1.03,4.67-1.03,1.79,0,3.4.41,4.45,1.28,1,.81,1.49,2.01,1.49,3.69v4.54c0,.62.24,1.06.81,1.06.22,0,.46-.05.68-.16v3.1c-.46.24-1.2.41-1.98.41-1.09,0-2.15-.3-2.88-1.06h-.05ZM207.48,1049.3c-.43-.14-1.03-.19-1.47-.19-1.06,0-2.12.33-2.12,1.36,0,.87.76,1.33,1.71,1.33.71,0,1.39-.24,1.87-.54v-1.96Z"/><path class="cls-2" d="M226.66,1053.81c-1.28.71-2.85,1.03-4.37,1.03-4.29,0-7.44-2.93-7.44-6.95s3.48-7.01,7.66-7.01c1.49,0,2.88.35,3.97.9v3.83c-1.2-.76-2.5-1.25-3.78-1.25-2.2,0-3.72,1.49-3.72,3.5s1.55,3.48,3.78,3.48c1.3,0,2.8-.49,3.91-1.33v3.8Z"/><path class="cls-2" d="M233.26,1048.94c.46,1.85,1.98,2.69,3.88,2.69,1.49,0,3.12-.52,4.54-1.47v3.45c-1.3.81-3.31,1.22-5.08,1.22-4.4,0-7.58-2.74-7.58-6.93s3.31-7.03,7.01-7.03c3.29,0,6.38,2.17,6.38,6.65,0,.46-.03,1.06-.08,1.41h-9.07ZM238.61,1046.34c-.24-1.44-1.3-2.31-2.63-2.31s-2.39.79-2.74,2.31h5.38Z"/><path class="cls-2" d="M245.13,1050.11c1.85,1.09,3.99,1.55,5.27,1.55,1.14,0,1.82-.3,1.82-1.03,0-1.03-1.49-.92-3.5-1.44-2.53-.62-4.02-1.68-4.02-3.88.03-2.83,2.53-4.43,5.84-4.43,1.6,0,3.58.33,5.11,1.06v3.56c-1.77-1-3.83-1.44-5.02-1.44-1.09,0-1.74.33-1.74.95,0,.98,1.44.9,3.42,1.38,2.55.62,4.1,1.6,4.1,3.91-.03,2.93-2.58,4.54-6,4.54-1.6,0-3.67-.33-5.27-1.11v-3.61Z"/><path class="cls-2" d="M261.78,1049.95c1.36,0,2.5,1.09,2.5,2.44s-1.14,2.44-2.5,2.44-2.5-1.09-2.5-2.44,1.14-2.44,2.5-2.44Z"/><path class="cls-2" d="M278.73,1053.81c-1.28.71-2.85,1.03-4.37,1.03-4.29,0-7.44-2.93-7.44-6.95s3.48-7.01,7.66-7.01c1.49,0,2.88.35,3.97.9v3.83c-1.19-.76-2.5-1.25-3.78-1.25-2.2,0-3.72,1.49-3.72,3.5s1.55,3.48,3.78,3.48c1.3,0,2.8-.49,3.91-1.33v3.8Z"/><path class="cls-2" d="M280.74,1054.54l-.03-.05,6-9.83-.03-.05h-5.38v-3.42h11.84l.03.05-6,9.83.03.05h5.81v3.42h-12.28Z"/><path class="cls-2" d="M382.44,64.94l114.56,259.39h-52.91l-26.92-63.13h-115.3l-25.06,63.13h-52.55l106.95-259.39h51.25ZM317.09,223.14h83.74l-43.82-102.68-39.92,102.68Z"/><path class="cls-2" d="M130.96,99.26c16.74,0,30.36,13.62,30.36,30.36s-13.62,30.36-30.36,30.36-30.36-13.62-30.36-30.36,13.62-30.36,30.36-30.36M130.96,61.64c-37.54,0-67.97,30.43-67.97,67.97s30.43,67.97,67.97,67.97,67.97-30.43,67.97-67.97-30.43-67.97-67.97-67.97h0Z"/><path class="cls-2" d="M69.57,762.69l9.28,11.42,9.23-11.42h5.08v28.63h-5.54v-20.44l-8.44,10.58h-.76l-8.52-10.58v20.44h-5.46v-28.63h5.12Z"/><path class="cls-2" d="M116.76,781.58v.76h-13.73c.34,3.23,2.69,5.42,6.04,5.42,2.52,0,5.04-.84,7.26-2.23v3.95c-2.48,1.55-5.04,2.23-8.1,2.23-5.83,0-10.2-3.95-10.2-10.28,0-5.79,3.74-10.03,9.78-10.03,5,0,8.94,3.61,8.94,10.2ZM112.01,779.65c-.13-2.85-1.68-4.58-4.32-4.58s-4.53,1.93-4.66,4.58h8.98Z"/><path class="cls-2" d="M138.04,775.03c2.48-2.6,4.32-3.65,6.84-3.65,4.37,0,6.67,2.9,6.67,7.77v12.17h-4.87v-11.46c0-2.85-1.3-4.45-3.65-4.45-1.43,0-3.02.92-4.32,2.64v13.26h-4.87v-11.29c0-3.19-1.09-4.66-3.48-4.66-1.64,0-2.98.8-4.45,2.69v13.26h-4.87v-19.56h4.87v2.64c2.01-2.06,3.78-3.02,6.17-3.02,2.64,0,4.83,1.22,5.96,3.65Z"/><path class="cls-2" d="M165.12,791.74c-3.02,0-5.71-.63-8.35-1.64v-27.41h4.91v10.41c1.47-1.13,3.4-1.72,5.33-1.72,5.54,0,8.69,4.62,8.69,10.07,0,6.88-4.62,10.28-10.58,10.28ZM161.68,787.2c1.05.38,2.22.55,3.48.55,2.77,0,5.5-1.76,5.5-6.21,0-3.78-2.06-6.17-4.95-6.17-1.3,0-2.73.55-4.03,1.68v10.16Z"/><path class="cls-2" d="M197.65,781.58v.76h-13.73c.34,3.23,2.69,5.42,6.04,5.42,2.52,0,5.04-.84,7.26-2.23v3.95c-2.48,1.55-5.04,2.23-8.1,2.23-5.83,0-10.2-3.95-10.2-10.28,0-5.79,3.74-10.03,9.78-10.03,5,0,8.94,3.61,8.94,10.2ZM192.91,779.65c-.13-2.85-1.68-4.58-4.32-4.58s-4.53,1.93-4.66,4.58h8.98Z"/><path class="cls-2" d="M217.01,773.35l-2.22,4.62c-1.09-1.09-2.43-1.76-3.53-1.76-2.01,0-4.16,1.89-4.58,5.37v9.74h-4.91v-19.56h4.91v4.58c1.85-3.36,3.82-4.95,5.92-4.95,1.51,0,2.98.71,4.41,1.97Z"/><g class="cls-3"><path class="cls-2" d="M72.81,818.23c5.58,0,9.78,4.07,9.78,9.82,0,6.51-5.12,9.78-9.86,9.78-6.3,0-9.82-4.87-9.82-9.65,0-5.67,3.9-9.95,9.91-9.95ZM72.76,835.27c4.11,0,6.88-3.11,6.88-7.26,0-4.58-3.19-7.22-7.05-7.22s-6.76,2.85-6.76,7.26,2.98,7.22,6.93,7.22Z"/><path class="cls-2" d="M96.9,808.91v2.69c-.71-.29-1.59-.42-2.39-.42-2.69,0-3.99,1.59-3.99,5.5v1.93h3.99v2.56h-3.99v16.29h-2.85v-16.29h-2.77v-2.56h2.77v-1.97c0-5.25,2.48-8.14,6.42-8.14,1.05,0,1.97.17,2.81.42Z"/><path class="cls-2" d="M107.23,818.61h3.65v-4.16l2.85-1.64v5.79h5.83v2.56h-5.83v10.07c0,2.31.38,3.99,2.73,3.99,1.39,0,2.77-.5,3.95-1.22v2.69c-1.26.76-3.02,1.13-4.32,1.13-3.65,0-5.21-1.85-5.21-6.59v-10.07h-3.65v-2.56Z"/><path class="cls-2" d="M139.55,825.66v11.8h-2.9v-11.67c0-3.27-1.39-5.16-4.28-5.16-2.14,0-3.78,1.05-5.46,3.23v13.6h-2.85v-28.63h2.85v12.64c1.51-1.97,3.78-3.23,6.17-3.23,4.41,0,6.46,3.02,6.46,7.43Z"/><path class="cls-2" d="M160.21,835.61c-2.39,1.64-4.58,2.23-7.14,2.23-5.12,0-9.23-3.82-9.23-9.86,0-5.58,3.36-9.74,8.61-9.74,4.79,0,7.93,3.53,8.06,9.7h-13.73v.29c0,3.36,2.27,6.93,6.67,6.93,2.43,0,4.74-.84,6.76-2.35v2.81ZM157.65,826.12c-.34-3.36-2.1-5.37-5.25-5.37-2.98,0-5.21,2.31-5.54,5.37h10.79Z"/><path class="cls-2" d="M191.19,822.01c2.35-2.65,4.07-3.78,6.42-3.78,4.07,0,6.25,2.69,6.25,7.43v11.8h-2.85v-11.5c0-3.44-1.51-5.25-4.32-5.25-1.72,0-3.53,1.05-4.95,3.11v13.64h-2.81v-11.59c0-3.53-1.34-5.21-4.11-5.21-2.14,0-3.82,1.18-5.21,3.06v13.73h-2.81v-18.85h2.81v2.85c1.85-2.14,3.78-3.23,6.04-3.23,2.48,0,4.58,1.22,5.54,3.78Z"/><path class="cls-2" d="M218.1,818.23c5.58,0,9.78,4.07,9.78,9.82,0,6.51-5.12,9.78-9.86,9.78-6.3,0-9.82-4.87-9.82-9.65,0-5.67,3.9-9.95,9.91-9.95ZM218.06,835.27c4.11,0,6.88-3.11,6.88-7.26,0-4.58-3.19-7.22-7.05-7.22s-6.76,2.85-6.76,7.26,2.98,7.22,6.93,7.22Z"/><path class="cls-2" d="M237.28,818.23c1.8,0,3.57.46,5.33,1.47v2.9c-1.93-1.22-3.48-1.85-5.16-1.85-2.1,0-3.06.92-3.06,2.18s.55,2.01,4.11,3.82c2.69,1.34,5,2.98,5,5.83,0,2.43-1.89,5.25-6.21,5.25-1.97,0-3.53-.38-5.96-1.64v-3.11c1.8,1.34,4.07,2.23,5.75,2.23,2.31,0,3.44-1.13,3.44-2.48,0-1.51-.63-2.1-4.62-4.2-2.81-1.47-4.45-2.98-4.45-5.54,0-2.85,2.35-4.87,5.83-4.87Z"/><path class="cls-2" d="M245.72,818.61h3.65v-4.16l2.85-1.64v5.79h5.83v2.56h-5.83v10.07c0,2.31.38,3.99,2.73,3.99,1.39,0,2.77-.5,3.95-1.22v2.69c-1.26.76-3.02,1.13-4.32,1.13-3.65,0-5.21-1.85-5.21-6.59v-10.07h-3.65v-2.56Z"/><path class="cls-2" d="M71.21,884.79c-2.52,0-4.79-.5-7.09-1.43v-27.62h2.85v11.63c1.68-1.47,3.57-2.23,5.79-2.23,4.91,0,8.1,4.07,8.1,9.53,0,6.3-4.16,10.12-9.65,10.12ZM66.97,881.48c1.47.55,2.69.8,4.32.8,3.86,0,6.63-2.9,6.63-7.51,0-4.2-2.31-7.09-5.88-7.09-1.85,0-3.44.76-5.08,2.39v11.42Z"/><path class="cls-2" d="M100.55,882.53c-2.39,1.64-4.58,2.23-7.14,2.23-5.12,0-9.23-3.82-9.23-9.86,0-5.58,3.36-9.74,8.61-9.74,4.79,0,7.93,3.53,8.06,9.7h-13.73v.29c0,3.36,2.27,6.93,6.67,6.93,2.43,0,4.74-.84,6.76-2.35v2.81ZM97.99,873.04c-.34-3.36-2.1-5.37-5.25-5.37-2.98,0-5.21,2.31-5.54,5.37h10.79Z"/><path class="cls-2" d="M116.88,871.07v10.41c0,.59.17.84.59.84.38,0,1.13-.42,2.22-1.26v2.14c-1.47,1.05-2.6,1.55-3.74,1.55-1.59,0-1.93-1.09-1.93-1.81v-.5c-2.14,1.81-3.65,2.31-5.5,2.31-2.85,0-4.79-2.06-4.79-4.62,0-3.69,3.19-5.42,10.28-7.05v-1.47c0-2.64-1.09-3.78-3.74-3.78-2.31,0-4.11,1.01-5.96,2.9v-3.11c1.6-1.68,3.69-2.48,6.21-2.48,4.16,0,6.34,2.27,6.34,5.92ZM109.83,882.65c1.34,0,2.6-.5,4.2-2.06v-5.88c-4.62.88-7.39,2.39-7.39,4.95,0,1.68,1.3,2.98,3.19,2.98Z"/><path class="cls-2" d="M125.83,865.53v11.29c0,3.78,1.59,5.54,4.45,5.54,2.14,0,3.99-1.26,5.29-3.27v-13.56h2.9v18.85h-2.9v-2.81c-1.59,1.97-3.99,3.19-6.13,3.19-3.82,0-6.46-2.27-6.46-8.23v-11h2.85Z"/><path class="cls-2" d="M141.32,865.53h3.65v-4.16l2.85-1.64v5.79h5.83v2.56h-5.83v10.07c0,2.31.38,3.99,2.73,3.99,1.39,0,2.77-.5,3.95-1.22v2.69c-1.26.76-3.02,1.13-4.32,1.13-3.65,0-5.21-1.85-5.21-6.59v-10.07h-3.65v-2.56Z"/><path class="cls-2" d="M160.88,858.01v3.65h-2.85v-3.65h2.85ZM158.03,865.53h2.85v18.85h-2.85v-18.85Z"/><path class="cls-2" d="M176.41,855.83v2.69c-.71-.29-1.6-.42-2.39-.42-2.69,0-3.99,1.59-3.99,5.5v1.93h3.99v2.56h-3.99v16.29h-2.85v-16.29h-2.77v-2.56h2.77v-1.97c0-5.25,2.48-8.14,6.42-8.14,1.05,0,1.97.17,2.81.42Z"/><path class="cls-2" d="M179.69,865.53v11.29c0,3.78,1.6,5.54,4.45,5.54,2.14,0,3.99-1.26,5.29-3.27v-13.56h2.9v18.85h-2.9v-2.81c-1.6,1.97-3.99,3.19-6.13,3.19-3.82,0-6.46-2.27-6.46-8.23v-11h2.85Z"/><path class="cls-2" d="M200.89,855.75v28.63h-2.85v-28.63h2.85Z"/><path class="cls-2" d="M78.64,914.67h-4.24c1.68,1.01,2.48,2.73,2.48,4.58,0,3.27-2.18,5.54-5.79,6.25-2.35.46-4.07.8-4.07,2.1,0,1.51,2.06,1.85,5.71,2.39,4.74.8,5.92,3.02,5.92,5.29,0,3.61-3.44,5.71-8.61,5.71-5.67,0-8.48-2.35-8.48-5.5,0-2.43,1.26-4.28,4.87-5.08-1.43-.63-2.14-1.51-2.14-2.48,0-1.47,1.05-2.39,3.23-2.98-3.06-1.09-4.41-3.36-4.41-6,0-3.86,2.9-6.51,8.02-6.51h7.51v2.22ZM70.08,938.68c3.65,0,5.79-1.18,5.79-3.32s-2.39-3.32-6.38-3.32c-2.98,0-5.21,1.13-5.21,3.36s2.1,3.27,5.79,3.27ZM69.95,923.15c2.43,0,4.28-1.55,4.28-4.2,0-2.27-1.72-4.03-4.2-4.03s-4.32,1.68-4.32,4.11c0,2.56,1.97,4.11,4.24,4.11Z"/><path class="cls-2" d="M97.11,929.45c-2.39,1.64-4.58,2.23-7.14,2.23-5.12,0-9.24-3.82-9.24-9.86,0-5.58,3.36-9.74,8.61-9.74,4.79,0,7.93,3.53,8.06,9.7h-13.73v.29c0,3.36,2.27,6.93,6.67,6.93,2.43,0,4.74-.84,6.76-2.35v2.81ZM94.55,919.96c-.34-3.36-2.1-5.37-5.25-5.37-2.98,0-5.21,2.31-5.54,5.37h10.79Z"/><path class="cls-2" d="M98.96,912.45h3.65v-4.16l2.85-1.64v5.79h5.83v2.56h-5.83v10.07c0,2.31.38,3.99,2.73,3.99,1.39,0,2.77-.5,3.95-1.22v2.69c-1.26.76-3.02,1.13-4.32,1.13-3.65,0-5.21-1.85-5.21-6.59v-10.07h-3.65v-2.56Z"/><path class="cls-2" d="M127.92,917.99v10.41c0,.59.17.84.59.84.38,0,1.13-.42,2.22-1.26v2.14c-1.47,1.05-2.6,1.55-3.74,1.55-1.6,0-1.93-1.09-1.93-1.81v-.5c-2.14,1.81-3.65,2.31-5.5,2.31-2.85,0-4.79-2.06-4.79-4.62,0-3.69,3.19-5.42,10.28-7.05v-1.47c0-2.65-1.09-3.78-3.74-3.78-2.31,0-4.11,1.01-5.96,2.9v-3.11c1.6-1.68,3.69-2.48,6.21-2.48,4.16,0,6.34,2.27,6.34,5.92ZM120.87,929.57c1.34,0,2.6-.5,4.2-2.06v-5.88c-4.62.88-7.39,2.39-7.39,4.95,0,1.68,1.3,2.98,3.19,2.98Z"/><path class="cls-2" d="M130.82,912.45h3.06l5.62,13.22,5.33-13.22h2.06l5.33,13.22,5.62-13.22h3.06l-8.23,19.23h-.92l-5.92-14.48-5.79,14.48h-.97l-8.27-19.23Z"/><path class="cls-2" d="M175.53,917.99v10.41c0,.59.17.84.59.84.38,0,1.13-.42,2.22-1.26v2.14c-1.47,1.05-2.6,1.55-3.74,1.55-1.6,0-1.93-1.09-1.93-1.81v-.5c-2.14,1.81-3.65,2.31-5.5,2.31-2.85,0-4.79-2.06-4.79-4.62,0-3.69,3.19-5.42,10.28-7.05v-1.47c0-2.65-1.09-3.78-3.74-3.78-2.31,0-4.11,1.01-5.96,2.9v-3.11c1.59-1.68,3.69-2.48,6.21-2.48,4.16,0,6.34,2.27,6.34,5.92ZM168.48,929.57c1.34,0,2.6-.5,4.2-2.06v-5.88c-4.62.88-7.39,2.39-7.39,4.95,0,1.68,1.3,2.98,3.19,2.98Z"/><path class="cls-2" d="M181.58,912.45l5.92,11.84,5.62-11.84h3.11l-13.68,28.5h-3.06l6.46-13.47-7.6-15.03h3.23Z"/><path class="cls-2" d="M204.12,912.07c1.8,0,3.57.46,5.33,1.47v2.9c-1.93-1.22-3.48-1.85-5.16-1.85-2.1,0-3.06.92-3.06,2.18s.55,2.01,4.11,3.82c2.69,1.34,5,2.98,5,5.83,0,2.43-1.89,5.25-6.21,5.25-1.97,0-3.53-.38-5.96-1.64v-3.11c1.8,1.34,4.07,2.23,5.75,2.23,2.31,0,3.44-1.13,3.44-2.48,0-1.51-.63-2.1-4.62-4.2-2.81-1.47-4.45-2.98-4.45-5.54,0-2.85,2.35-4.87,5.83-4.87Z"/><path class="cls-2" d="M218.56,927.26v4.03h-3.53v-4.03h3.53Z"/></g><path class="cls-2" d="M426.93,996.76c20.4,0,42.25,19.52,53.61,28.7v-35.99h16.46v66.87h-1.31c-9.47-9.03-41.96-41.52-65.12-41.52-13.4,0-17.48,9.76-17.48,16.17,0,8.16,4.81,16.32,13.11,22.87h-19.81c-7.14-9.32-10.05-17.63-10.05-26.52,0-17.63,12.67-30.6,30.59-30.6Z"/><path class="cls-2" d="M447.19,911.67c32.63,0,51.14,15.3,51.14,34.09,0,19.81-19.38,34.09-50.99,34.09-34.09,0-50.99-16.9-50.99-34.53,0-19.52,20.1-33.65,50.85-33.65ZM482.59,945.91c0-9.47-11.36-15.59-34.97-15.59s-35.69,5.83-35.69,15.59c0,8.74,11.36,15.3,35.4,15.3s35.26-5.39,35.26-15.3Z"/><path class="cls-2" d="M426.93,842.32c20.4,0,42.25,19.52,53.61,28.7v-35.99h16.46v66.87h-1.31c-9.47-9.03-41.96-41.52-65.12-41.52-13.4,0-17.48,9.76-17.48,16.17,0,8.16,4.81,16.32,13.11,22.87h-19.81c-7.14-9.32-10.05-17.63-10.05-26.52,0-17.63,12.67-30.6,30.59-30.6Z"/><path class="cls-2" d="M406.25,770.78c8.6,12.53,19.67,23.6,33.36,28.99-2.19-4.37-2.91-8.6-2.91-12.97,0-15.44,11.07-29.14,29.72-29.14,17.34,0,31.91,12.97,31.91,32.49,0,21.12-15.3,33.95-37.01,33.95-24.48,0-46.62-13.55-64.98-39.77l9.91-13.55ZM482.15,790.31c0-9.47-6.7-14.71-15.44-14.71-9.76,0-15.15,6.56-15.15,15.73,0,6.26,3.21,14.86,13.11,14.86,12.38,0,17.48-9.03,17.48-15.88Z"/></svg>