<?xml version="1.0" encoding="UTF-8"?><svg id="Vrstva_2" xmlns="http://www.w3.org/2000/svg" viewBox="-10 -10 322.62 105.04"><defs><style>.cls-1{fill:#304020;}.cls-2{fill:#c0782a;}</style></defs><g id="Vrstva_1-2"><polygon class="cls-1" points="0 17.01 0 34.02 51.02 17.01 51.02 0 0 17.01"/><path class="cls-2" d="M51.02,59.53V25.51l-17.01,5.67v28.29c0,3.98-2.73,7.52-6.62,8.36-5.52,1.18-10.39-2.99-10.39-8.3v-22.68S0,42.52,0,42.52v16.82c0,12.95,9.61,24.04,22.48,25.53,15.44,1.78,28.54-10.25,28.54-25.34h0Z"/><polygon class="cls-1" points="100.24 28.33 91.55 31.24 91.55 24.17 100.24 21.26 100.24 28.33"/><path class="cls-1" d="M100.24,51.48c0,1.61-.4,2.8-1.21,3.58-.81.78-1.85,1.16-3.14,1.16s-2.34-.39-3.14-1.16c-.81-.78-1.21-1.97-1.21-3.58v-16.7h-8.35v17.18c0,2.52.55,4.67,1.65,6.46,1.1,1.79,2.61,3.13,4.53,4.02,1.92.89,4.09,1.34,6.52,1.34s4.61-.45,6.52-1.34c1.92-.89,3.43-2.23,4.53-4.02,1.1-1.79,1.65-3.94,1.65-6.46v-17.18h-8.35v16.7Z"/><polygon class="cls-1" points="120.59 41.85 129.51 41.85 129.51 63.25 137.85 63.25 137.85 41.85 146.77 41.85 146.77 34.78 120.59 34.78 120.59 41.85"/><path class="cls-1" d="M175.82,51.48c0,1.61-.4,2.8-1.21,3.58-.81.78-1.85,1.16-3.14,1.16s-2.34-.39-3.14-1.16c-.81-.78-1.21-1.97-1.21-3.58v-16.7h-8.35v17.18c0,2.52.55,4.67,1.65,6.46,1.1,1.79,2.61,3.13,4.53,4.02,1.92.89,4.09,1.34,6.52,1.34s4.61-.45,6.52-1.34c1.92-.89,3.43-2.23,4.53-4.02,1.1-1.79,1.65-3.94,1.65-6.46v-17.18h-8.35v16.7Z"/><polygon class="cls-1" points="206.05 34.78 197.7 34.78 197.7 63.25 221.2 63.25 221.2 56.18 206.05 56.18 206.05 34.78"/><path class="cls-1" d="M251.08,49.54c-.06-.15-.22-.45-.48-.92-.26-.47-.53-.88-.79-1.23l-9.05-12.61h-7.25v28.47h8.35v-14.54c.06.15.22.45.48.92.26.47.53.88.79,1.23l9.05,12.39h7.25v-28.47h-8.35v14.76Z"/><polygon class="cls-1" points="291.11 34.78 282.5 34.78 270.99 63.25 279.51 63.25 286.8 42.38 294.1 63.25 302.62 63.25 291.11 34.78"/></g></svg>
