<?xml version="1.0" encoding="UTF-8"?><svg id="Vrstva_2" xmlns="http://www.w3.org/2000/svg" viewBox="-10 -10 161.73 126.78"><defs><style>.cls-1{fill:#ffffff;}</style></defs><g id="Vrstva_1-2"><polygon class="cls-1" points="50.27 13.73 50.27 27.46 91.46 13.73 91.46 0 50.27 13.73"/><path class="cls-1" d="M91.46,48.06v-27.46l-13.73,4.58v22.84c0,3.22-2.2,6.07-5.35,6.75-4.45.95-8.39-2.42-8.39-6.7v-18.31s-13.73,4.58-13.73,4.58v13.58c0,10.46,7.76,19.41,18.15,20.61,12.47,1.44,23.04-8.28,23.04-20.46h0Z"/><polygon class="cls-1" points="11.01 83.88 5.4 85.76 5.4 81.19 11.01 79.31 11.01 83.88"/><path class="cls-1" d="M11.01,98.83c0,1.04-.26,1.81-.78,2.31-.52.5-1.2.75-2.03.75s-1.51-.25-2.03-.75c-.52-.5-.78-1.27-.78-2.31v-10.78H0v11.1c0,1.63.35,3.02,1.06,4.17.71,1.15,1.68,2.02,2.92,2.6,1.24.58,2.64.87,4.21.87s2.98-.29,4.21-.87c1.24-.58,2.21-1.44,2.92-2.6.71-1.15,1.06-2.54,1.06-4.17v-11.1h-5.39v10.78Z"/><polygon class="cls-1" points="24.15 92.62 29.91 92.62 29.91 106.44 35.31 106.44 35.31 92.62 41.07 92.62 41.07 88.05 24.15 88.05 24.15 92.62"/><path class="cls-1" d="M59.83,98.83c0,1.04-.26,1.81-.78,2.31-.52.5-1.2.75-2.03.75s-1.51-.25-2.03-.75c-.52-.5-.78-1.27-.78-2.31v-10.78h-5.39v11.1c0,1.63.35,3.02,1.06,4.17.71,1.15,1.68,2.02,2.92,2.6,1.24.58,2.64.87,4.21.87s2.98-.29,4.21-.87c1.24-.58,2.21-1.44,2.92-2.6.71-1.15,1.06-2.54,1.06-4.17v-11.1h-5.39v10.78Z"/><polygon class="cls-1" points="79.35 88.05 73.96 88.05 73.96 106.44 89.14 106.44 89.14 101.87 79.35 101.87 79.35 88.05"/><path class="cls-1" d="M108.44,97.58c-.04-.09-.14-.29-.31-.6-.17-.3-.34-.57-.51-.79l-5.85-8.15h-4.68v18.39h5.39v-9.39c.04.09.14.29.31.6.17.3.34.57.51.79l5.85,8h4.68v-18.39h-5.39v9.54Z"/><polygon class="cls-1" points="134.3 88.05 128.73 88.05 121.3 106.44 126.8 106.44 131.52 92.96 136.23 106.44 141.73 106.44 134.3 88.05"/></g></svg>
